<?xml version="1.0" encoding="UTF-8"?><svg id="Lager_2" xmlns="http://www.w3.org/2000/svg" width="5.64mm" height="5.64mm" viewBox="0 0 16 16"><defs><style>.cls-1{fill:#fff;}</style></defs><g id="Lager_1-2"><g><rect class="cls-1" width="16" height="16" rx="2.93" ry="2.93"/><path d="M14.76,2.36c0,.15-.08,.26-.15,.35-.43-.2-.91-.2-1.19,.05-.24,.2-.28,.57-.31,.67,0,0-.02,.06,0,.27,.05,.36,.05,2.46,0,7.36,0,.28,.07,.51,.12,.64,.08,.21,.16,.38,.21,.38h0c.06,.01,.17-.14,.21-.21,.08-.16,.06-.3,.06-.38v-.08h.54c.06,.32,.12,.71-.01,1.24-.22,.9-.97,2.15-2.02,2.1-.69-.02-1.15-.61-1.19-.65-.33-.41-.35-.89-.38-1.14-.02-.19,0-.37,0-.38h0s0,0,0,0c.01-.13,.02-.47,.03-1.04-.99,.98-1.97,1.94-2.96,2.92-.21-.06-.46-.14-.68-.38-.39-.4-.25-.78-.56-1.27-.25-.42-.6-.64-.74-.73-.25-.14-.81-.5-1.37-.33-.78,.21-1.26,1.39-1.36,1.67-.14,.35-.2,.74-.53,.83-.26,.08-.54-.08-.68-.2-.12-.04-.24-.21-.31-.45-.21-.67,.47-1.56,.64-1.76,.45-.59,1.16-1.53,2.51-1.93,.24-.08,.57-.18,.93-.24,.55-.6,1.09-1.2,1.64-1.8v-.03h.02c.19-.21,.38-.42,.57-.62,.01-.29,0-.65-.06-1.05-.12-.69-.26-1.55-1-2.15-.72-.6-1.77-.78-2.6-.51-.79,.24-1.25,.79-1.92,1.6-.26,.39-.48,.71-.62,.93l-.09,.14-.06-.16c-.37-.98-.2-1.8,.64-2.71,.38-.41,1.38-1.48,3.11-1.88,.6-.14,1.58-.35,2.61,0,1.59,.56,2.28,2.13,2.55,3,.1-.11,.21-.23,.31-.34,0-.34,0-.69,0-1.04v-.04c.43-.36,1.1-.85,2.09-1.18,.6-.19,1.13-.26,1.57-.28,.07,.06,.48,.33,.46,.82Zm-4.08,6.88h-3.44c-.15,.18-.31,.35-.46,.53,.9,.37,.63,1,1.51,1.69,.27,.21,.61,.5,.98,.42,.18-.04,.67-.59,.98-.92,.1-.11,.28-.32,.43-.51,0-.35,0-.76,0-1.21Zm-2.21-1.39h2.21c0-.73,0-1.56-.01-2.49-.73,.83-1.46,1.66-2.19,2.49Z"/></g></g></svg>