<?xml version="1.0" encoding="UTF-8"?><svg id="Lager_2" xmlns="http://www.w3.org/2000/svg" width="100mm" height="100mm" viewBox="0 0 283.46 283.46"><defs><style>.cls-1{fill:#1d1d1b;}</style></defs><g id="Lager_1-2"><path class="cls-1" d="M283.44,23.42c0,3.13-1.78,5.43-3.13,7.37-9.12-4.14-19-4.28-25.05,1.04-4.94,4.29-5.94,11.86-6.51,14.05-.08-.01-.32,1.27,.05,5.73,1.04,7.49,1,51.52,0,154.29,0,5.95,1.45,10.61,2.41,13.37,1.75,4.47,3.3,8.01,4.39,8.01h.14c1.36,.22,3.55-2.89,4.33-4.35,1.78-3.42,1.32-6.23,1.32-7.91v-1.67h11.24c1.17,6.69,2.51,14.86-.29,26.06-4.54,18.86-20.31,45.05-42.44,44.03-14.52-.51-24.2-12.75-24.9-13.63-6.88-8.62-7.39-18.7-7.87-23.88-.52-3.93-.01-7.74-.01-7.87v-.16c.3-2.77,.51-9.8,.63-21.81-20.72,20.46-41.42,40.74-62.12,61.32-4.43-1.21-9.68-2.91-14.37-7.96-8.14-8.32-5.17-16.33-11.75-26.69-5.33-8.81-12.52-13.39-15.51-15.28-5.18-2.98-17.07-10.57-28.68-7.02-16.41,4.49-26.43,29.11-28.49,34.98-2.84,7.27-4.28,15.56-11.17,17.37-5.43,1.73-11.33-1.69-14.3-4.29-2.41-.87-5.03-4.35-6.46-9.34-4.36-14.1,9.89-32.75,13.34-36.99,9.5-12.45,24.41-32.12,52.57-40.45,4.98-1.59,11.96-3.76,19.55-4.94,11.49-12.62,22.97-25.22,34.47-37.84v-.52h.48c3.98-4.35,7.95-8.72,11.93-13.08,.23-6.07,.11-13.64-1.33-21.97-2.54-14.47-5.5-32.59-21.02-45.11-15.1-12.58-37.06-16.32-54.56-10.73-16.48,5.09-26.19,16.62-40.28,33.49-5.53,8.16-10,14.81-12.98,19.58l-1.88,2.99-1.25-3.28C-3.9,79.69-.34,62.52,17.34,43.41,25.4,34.72,46.29,12.28,82.49,3.99c12.57-2.89,33.07-7.35,54.72,.05,33.4,11.84,47.81,44.71,53.51,62.83,2.19-2.39,4.37-4.77,6.57-7.15-.05-7.07-.11-14.38-.16-21.92v-.76c9.04-7.62,22.99-17.86,43.86-24.84,12.66-4.04,23.61-5.38,32.87-5.9,1.37,1.32,10.16,6.86,9.58,17.12Zm-85.58,144.27H125.73c-3.22,3.67-6.44,7.35-9.65,11.02,18.92,7.74,13.2,20.95,31.67,35.51,5.72,4.46,12.86,10.49,20.59,8.79,3.7-.81,13.96-12.47,20.59-19.32,2.14-2.27,5.77-6.72,8.93-10.68,.01-7.44,.01-15.86-.01-25.31Zm-46.43-29.26h46.33c-.07-15.39-.16-32.75-.29-52.22-15.36,17.35-30.73,34.78-46.04,52.22Z"/></g></svg>